# xmcd CD database file
#
# Track frame offsets:
#	150
#	24725
#	50742
#	70155
#	90775
#	115330
#	150912
#	175080
#	195792
#	210372
#
# Disc length: 3254 seconds
#
# Revision: 1
# Processed by: cddbd v1.5PL3 Copyright (c) Steve Scherf et al.
# Submitted via: CDex 1.50
#
DISCID=700cb40a
DTITLE=Project G5 - A tribute to Joe Pass
DYEAR=1900
DGENRE=Jazz
TTITLE0=How high the moon
TTITLE1=Here's that rainy day
TTITLE2=Blues for Joe
TTITLE3=Night and day
TTITLE4=In a mellow tone
TTITLE5=Body and soul
TTITLE6=Beautiful love
TTITLE7=Have you met miss jpnes
TTITLE8=For Django
TTITLE9=Joe jam blues
EXTD=
EXTT0=
EXTT1=
EXTT2=
EXTT3=
EXTT4=
EXTT5=
EXTT6=
EXTT7=
EXTT8=
EXTT9=
PLAYORDER=
